<?xml version="1.0" encoding="utf-8"?>
<!-- Generator: Adobe Illustrator 21.0.2, SVG Export Plug-In . SVG Version: 6.00 Build 0)  -->
<svg version="1.1" id="Layer_1" xmlns="http://www.w3.org/2000/svg" xmlns:xlink="http://www.w3.org/1999/xlink" x="0px" y="0px"
	 viewBox="0 0 200 82.9" style="enable-background:new 0 0 200 82.9;" xml:space="preserve">
<style type="text/css">
	.st0{fill:#3EB1C8;}
	.st1{fill:#D8D2C4;}
	.st2{fill:#4F5858;}
	.st3{fill:#FFC72C;}
	.st4{fill:#EF3340;}
</style>
<polygon class="st0" points="0.1,67.7 0.1,47.3 17,41.7 46.7,51.9 "/>
<polygon class="st1" points="29.9,26 0.1,36.2 17,41.7 46.7,31.5 "/>
<polygon class="st2" points="17,41.7 46.7,31.5 46.7,51.9 "/>
<polygon class="st3" points="46.7,0 46.7,20.4 29.9,26 0.1,15.8 "/>
<polygon class="st4" points="29.9,26 0.1,36.2 0.1,15.8 "/>
<g>
	<g>
		<g>
			<g>
				<path class="st2" d="M76.2,37.4c-0.4-2.6-2.9-4.6-5.8-4.6c-5.2,0-7.2,4.4-7.2,9.1c0,4.4,2,8.9,7.2,8.9c3.6,0,5.6-2.4,6-5.9h5.6
					c-0.6,6.6-5.1,10.8-11.6,10.8c-8.2,0-13-6.1-13-13.7c0-7.9,4.8-14,13-14c5.8,0,10.7,3.4,11.4,9.5H76.2z"/>
				<path class="st2" d="M84.1,35.8h5v3.6h0.1c1-2.4,3.6-4.1,6.1-4.1c0.4,0,0.8,0.1,1.1,0.2v4.9c-0.5-0.1-1.3-0.2-1.9-0.2
					c-3.9,0-5.2,2.8-5.2,6.1v8.6h-5.3V35.8z"/>
				<path class="st2" d="M106.5,35.3c6,0,9.9,4,9.9,10.1c0,6.1-3.9,10.1-9.9,10.1c-6,0-9.9-4-9.9-10.1
					C96.6,39.2,100.5,35.3,106.5,35.3z M106.5,51.5c3.6,0,4.7-3.1,4.7-6.1c0-3.1-1.1-6.1-4.7-6.1c-3.6,0-4.6,3.1-4.6,6.1
					C101.9,48.4,102.9,51.5,106.5,51.5z"/>
				<path class="st2" d="M122.5,48.7c0,2.3,2,3.2,4,3.2c1.5,0,3.4-0.6,3.4-2.4c0-1.6-2.2-2.1-6-3c-3-0.7-6.1-1.7-6.1-5.1
					c0-4.9,4.2-6.1,8.3-6.1c4.2,0,8,1.4,8.4,6.1h-5c-0.1-2-1.7-2.6-3.6-2.6c-1.2,0-2.9,0.2-2.9,1.8c0,1.9,3,2.1,6,2.9
					c3.1,0.7,6.1,1.8,6.1,5.4c0,5-4.4,6.7-8.7,6.7c-4.4,0-8.8-1.7-9-6.7H122.5z"/>
				<path class="st2" d="M141.7,48.7c0,2.3,2,3.2,4,3.2c1.5,0,3.4-0.6,3.4-2.4c0-1.6-2.2-2.1-6-3c-3-0.7-6.1-1.7-6.1-5.1
					c0-4.9,4.2-6.1,8.3-6.1c4.2,0,8,1.4,8.4,6.1h-5c-0.1-2-1.7-2.6-3.6-2.6c-1.2,0-2.9,0.2-2.9,1.8c0,1.9,3,2.1,6,2.9
					c3.1,0.7,6.1,1.8,6.1,5.4c0,5-4.4,6.7-8.7,6.7c-4.4,0-8.8-1.7-9-6.7H141.7z"/>
				<path class="st2" d="M156.2,35.8h5v3.6h0.1c1-2.4,3.6-4.1,6.1-4.1c0.4,0,0.8,0.1,1.1,0.2v4.9c-0.5-0.1-1.3-0.2-1.9-0.2
					c-3.9,0-5.2,2.8-5.2,6.1v8.6h-5.3V35.8z"/>
				<path class="st2" d="M174.2,46.6c0.1,3.3,1.8,4.9,4.7,4.9c2.1,0,3.8-1.3,4.1-2.5h4.6c-1.5,4.5-4.6,6.4-9,6.4
					c-6,0-9.8-4.1-9.8-10.1c0-5.7,4-10.1,9.8-10.1c6.5,0,9.7,5.5,9.3,11.4H174.2z M182.8,43.3c-0.5-2.7-1.6-4.1-4.2-4.1
					c-3.3,0-4.3,2.6-4.4,4.1H182.8z"/>
				<path class="st2" d="M190.9,39.3h-3.1v-3.5h3.1v-1.5c0-3.4,2.1-5.8,6.4-5.8c0.9,0,1.9,0.1,2.8,0.1v3.9c-0.6-0.1-1.3-0.1-1.9-0.1
					c-1.4,0-2,0.6-2,2.2v1.1h3.6v3.5h-3.6v15.6h-5.3V39.3z"/>
			</g>
		</g>
	</g>
</g>
<g>
	<path class="st2" d="M58.6,66.6h2.9l5,13.5l5.1-13.5h2.9v16h-2V69.3h0l-5,13.3h-1.8l-5-13.3h0v13.3h-2V66.6z"/>
	<path class="st2" d="M86.9,79c-0.5,2.6-2.4,3.9-5,3.9c-3.7,0-5.5-2.6-5.6-6.1c0-3.5,2.3-6,5.5-6c4.1,0,5.4,3.8,5.3,6.6h-8.7
		c-0.1,2,1.1,3.8,3.6,3.8c1.6,0,2.7-0.8,3-2.3H86.9z M85.1,75.7c-0.1-1.8-1.5-3.3-3.3-3.3c-2,0-3.2,1.5-3.3,3.3H85.1z"/>
	<path class="st2" d="M91.7,71H94v1.7h-2.3v7.2c0,0.9,0.2,1,1.4,1H94v1.7h-1.5c-2,0-2.8-0.4-2.8-2.5v-7.4h-2V71h2v-3.5h1.9V71z"/>
	<path class="st2" d="M106.4,82.6c-0.3,0.2-0.8,0.3-1.4,0.3c-1,0-1.6-0.5-1.6-1.8c-1.1,1.2-2.5,1.8-4.1,1.8c-2.1,0-3.8-0.9-3.8-3.3
		c0-2.6,2-3.2,3.9-3.6c2.1-0.4,3.9-0.3,3.9-1.7c0-1.7-1.4-1.9-2.6-1.9c-1.6,0-2.8,0.5-2.9,2.2h-1.9c0.1-2.9,2.3-3.9,4.9-3.9
		c2.1,0,4.4,0.5,4.4,3.2v6c0,0.9,0,1.3,0.6,1.3c0.2,0,0.3,0,0.6-0.1V82.6z M103.3,76.6c-0.7,0.5-2.2,0.6-3.5,0.8
		c-1.3,0.2-2.3,0.7-2.3,2.1c0,1.3,1.1,1.7,2.2,1.7c2.5,0,3.5-1.6,3.5-2.6V76.6z"/>
	<path class="st2" d="M118.5,82.6h-1.9v-1.6h0c-0.6,1.3-2.1,1.8-3.7,1.8c-3.6,0-5.3-2.8-5.3-6.1c0-3.3,1.8-6,5.3-6
		c1.2,0,2.9,0.4,3.7,1.8h0v-6h1.9V82.6z M113.1,81.2c2.6,0,3.5-2.2,3.5-4.4c0-2.3-1-4.4-3.7-4.4c-2.6,0-3.5,2.2-3.5,4.5
		C109.6,79.1,110.7,81.2,113.1,81.2z"/>
	<path class="st2" d="M131.5,82.6c-0.3,0.2-0.8,0.3-1.4,0.3c-1,0-1.6-0.5-1.6-1.8c-1.1,1.2-2.5,1.8-4.1,1.8c-2.1,0-3.8-0.9-3.8-3.3
		c0-2.6,2-3.2,3.9-3.6c2.1-0.4,3.9-0.3,3.9-1.7c0-1.7-1.4-1.9-2.6-1.9c-1.6,0-2.8,0.5-2.9,2.2h-1.9c0.1-2.9,2.3-3.9,4.9-3.9
		c2.1,0,4.4,0.5,4.4,3.2v6c0,0.9,0,1.3,0.6,1.3c0.2,0,0.3,0,0.6-0.1V82.6z M128.4,76.6c-0.7,0.5-2.2,0.6-3.5,0.8
		c-1.3,0.2-2.3,0.7-2.3,2.1c0,1.3,1.1,1.7,2.2,1.7c2.5,0,3.5-1.6,3.5-2.6V76.6z"/>
	<path class="st2" d="M135.9,71h2.3v1.7h-2.3v7.2c0,0.9,0.2,1,1.4,1h0.9v1.7h-1.5c-2,0-2.8-0.4-2.8-2.5v-7.4h-2V71h2v-3.5h1.9V71z"
		/>
	<path class="st2" d="M150.6,82.6c-0.3,0.2-0.8,0.3-1.4,0.3c-1,0-1.6-0.5-1.6-1.8c-1.1,1.2-2.5,1.8-4.1,1.8c-2.1,0-3.8-0.9-3.8-3.3
		c0-2.6,2-3.2,3.9-3.6c2.1-0.4,3.9-0.3,3.9-1.7c0-1.7-1.4-1.9-2.6-1.9c-1.6,0-2.8,0.5-2.9,2.2h-1.9c0.1-2.9,2.3-3.9,4.9-3.9
		c2.1,0,4.4,0.5,4.4,3.2v6c0,0.9,0,1.3,0.6,1.3c0.2,0,0.3,0,0.6-0.1V82.6z M147.5,76.6c-0.7,0.5-2.2,0.6-3.5,0.8
		c-1.3,0.2-2.3,0.7-2.3,2.1c0,1.3,1.1,1.7,2.2,1.7c2.5,0,3.5-1.6,3.5-2.6V76.6z"/>
	<path class="st2" d="M162.8,66.6h2.4l6.3,16h-2.4l-1.8-4.8h-6.8l-1.8,4.8h-2.2L162.8,66.6z M161.3,76h5.4l-2.7-7.5h0L161.3,76z"/>
	<path class="st2" d="M172.6,66.6h7c3.2,0,4.9,1.8,4.9,4.7s-1.7,4.8-4.9,4.7h-4.9v6.6h-2.1V66.6z M174.8,74.3h4.2
		c2.4,0,3.5-1,3.5-2.9c0-1.9-1.1-2.9-3.5-2.9h-4.2V74.3z"/>
	<path class="st2" d="M186.2,66.6h2.1v16h-2.1V66.6z"/>
</g>
<g>
	<path class="st2" d="M192.4,80c0.2,0.3,0.4,0.5,0.7,0.7c0.3,0.2,0.6,0.3,1,0.4s0.7,0.1,1.1,0.1c0.3,0,0.6,0,0.9-0.1
		c0.3,0,0.6-0.1,0.9-0.2c0.3-0.1,0.5-0.3,0.7-0.5c0.2-0.2,0.3-0.5,0.3-0.9c0-0.5-0.2-0.9-0.6-1.1c-0.4-0.3-0.8-0.5-1.4-0.6
		c-0.6-0.2-1.2-0.3-1.8-0.4c-0.7-0.1-1.3-0.3-1.8-0.5c-0.6-0.2-1-0.6-1.4-1c-0.4-0.4-0.6-1-0.6-1.7c0-0.6,0.1-1.1,0.4-1.5
		c0.3-0.4,0.6-0.8,1-1c0.4-0.3,0.9-0.5,1.4-0.6c0.5-0.1,1-0.2,1.5-0.2c0.7,0,1.3,0.1,1.8,0.2c0.6,0.1,1,0.3,1.5,0.6
		c0.4,0.3,0.8,0.7,1,1.1c0.3,0.5,0.4,1.1,0.4,1.8h-1.9c0-0.4-0.1-0.7-0.3-0.9c-0.2-0.2-0.4-0.4-0.6-0.6c-0.3-0.1-0.5-0.3-0.8-0.3
		c-0.3-0.1-0.6-0.1-0.9-0.1c-0.3,0-0.6,0-0.9,0.1c-0.3,0-0.6,0.1-0.8,0.2c-0.2,0.1-0.4,0.3-0.6,0.4c-0.1,0.2-0.2,0.4-0.2,0.7
		c0,0.3,0.1,0.6,0.3,0.8c0.2,0.2,0.5,0.4,0.9,0.5c0.4,0.1,0.8,0.3,1.2,0.4s0.9,0.2,1.3,0.3c0.5,0.1,0.9,0.2,1.4,0.4
		c0.5,0.1,0.9,0.3,1.2,0.6c0.4,0.2,0.6,0.6,0.9,0.9c0.2,0.4,0.3,0.8,0.3,1.4c0,0.7-0.1,1.3-0.4,1.7c-0.3,0.5-0.7,0.8-1.1,1.1
		c-0.5,0.3-1,0.5-1.6,0.6c-0.6,0.1-1.2,0.2-1.8,0.2c-0.6,0-1.3-0.1-1.8-0.2c-0.6-0.1-1.1-0.4-1.5-0.7c-0.4-0.3-0.8-0.7-1.1-1.2
		c-0.3-0.5-0.4-1.1-0.4-1.8h1.9C192.1,79.4,192.2,79.8,192.4,80z"/>
</g>
</svg>
